<?xml version="1.0" encoding="UTF-8"?> <svg xmlns="http://www.w3.org/2000/svg" width="462" height="512" viewBox="0 0 462 512" fill="none"><path d="M438.727 102.4C405.131 102.4 373.567 86.6389 352.122 59.1616C322.776 21.5552 278.633 0 231 0C183.367 0 139.224 21.5552 109.887 59.1616C88.4337 86.6389 56.8689 102.4 23.2732 102.4C10.7718 102.4 0.600098 112.572 0.600098 125.073V128C0.600098 132.574 2.4689 137.037 5.72863 140.245C8.95423 143.428 12.9734 145.067 17.6668 145.067C17.6668 210.236 56.4081 266.402 111.994 292.139L90.2769 485.931C88.6812 492.066 89.9185 498.441 93.7158 503.561C97.6924 508.928 103.802 512 110.475 512H118.838C128.097 512 136.109 506.052 138.806 497.195L150.01 398.012L231 351.172L311.905 397.961L322.878 495.667L323.194 497.195C325.882 506.052 333.904 512 343.162 512H351.525C358.198 512 364.308 508.928 368.284 503.569C372.082 498.441 373.319 492.066 371.723 485.939L350.006 292.147C405.584 266.402 444.274 210.236 444.12 145.067C449.035 145.084 453.063 143.369 456.331 140.143C459.6 136.909 461.4 132.599 461.4 128V125.073C461.4 112.572 451.228 102.4 438.727 102.4ZM118.838 494.933H110.475C108.811 494.933 107.847 493.978 107.429 493.397C107.011 492.817 106.362 491.631 106.849 490.035L128.421 298.795C128.72 298.897 129.044 298.957 129.351 299.051C133.643 300.459 138.038 301.636 142.484 302.686C142.859 302.771 143.218 302.908 143.593 302.993L122.277 492.749C121.654 494.054 120.306 494.933 118.838 494.933ZM152.4 376.917L159.952 310.084L213.959 341.316L152.4 376.917ZM189.05 307.2H272.959L231 331.46L189.05 307.2ZM248.041 341.316L302.032 310.093L309.532 376.883L248.041 341.316ZM333.579 298.803L354.836 488.516L355.152 490.044C355.638 491.639 354.989 492.826 354.571 493.406C354.153 493.986 353.189 494.933 351.525 494.933H343.162C341.695 494.933 340.355 494.054 339.732 492.757L318.416 303.002C318.8 302.916 319.158 302.78 319.533 302.694C323.971 301.645 328.365 300.476 332.649 299.068C332.956 298.957 333.281 298.897 333.579 298.803ZM444.333 128C439.836 128.239 435.604 129.664 432.37 132.847C429.127 136.047 427.267 140.501 427.267 145.067C427.267 205.03 390.693 256.614 338.682 278.682L338.512 278.75C337.453 279.202 336.327 279.518 335.252 279.945C331.344 281.472 327.384 282.923 323.263 284.117C322.93 284.22 322.588 284.279 322.247 284.382C317.511 285.722 312.656 286.865 307.689 287.744C299.395 289.229 290.913 290.133 282.2 290.133H179.8C171.088 290.133 162.605 289.229 154.311 287.753C149.336 286.865 144.489 285.722 139.753 284.39C139.42 284.297 139.071 284.228 138.738 284.126C134.616 282.931 130.648 281.481 126.748 279.953C125.673 279.526 124.555 279.211 123.489 278.758L123.318 278.69C71.3073 256.614 34.7334 205.03 34.7334 145.067C34.7334 140.45 32.9244 136.124 29.6305 132.881C26.422 129.724 22.2065 128 17.9228 128C17.846 128 17.7521 128 17.6668 128V125.073C17.6668 121.984 20.1841 119.467 23.2732 119.467C62.1596 119.467 98.631 101.308 123.335 69.6576C149.413 36.2325 188.658 17.0667 231 17.0667C273.343 17.0667 312.587 36.2325 338.665 69.6576C363.369 101.308 399.841 119.467 438.727 119.467C441.816 119.467 444.333 121.984 444.333 125.073V128Z" fill="#425A53"></path><path d="M349.016 188.928L342.787 187.597C274.289 172.919 204.811 172.911 136.297 187.597L130.051 188.928H130.042C119.316 191.232 111.533 200.857 111.533 211.823V224.043C111.533 231.151 114.699 237.781 120.229 242.253C125.758 246.724 132.867 248.422 139.872 246.946C206.006 232.781 273.061 232.781 339.211 246.946C340.849 247.296 342.496 247.467 344.143 247.467C349.451 247.467 354.622 245.666 358.846 242.253C364.367 237.781 367.533 231.151 367.533 224.043V211.823C367.533 200.857 359.751 191.232 349.016 188.928ZM350.467 224.043C350.467 226.679 348.99 228.267 348.111 228.983C347.232 229.692 345.406 230.818 342.787 230.255C308.525 222.916 274.033 219.238 239.533 219.238C205.041 219.238 170.541 222.916 136.288 230.255C133.677 230.809 131.843 229.692 130.955 228.983C130.076 228.267 128.6 226.671 128.6 224.043V211.823C128.6 208.845 130.716 206.233 133.626 205.602L139.864 204.271C205.997 190.105 273.069 190.105 339.203 204.271L345.432 205.602C348.35 206.233 350.467 208.853 350.467 211.823V224.043Z" fill="#425A53"></path></svg> 