<?xml version="1.0" encoding="UTF-8"?> <svg xmlns="http://www.w3.org/2000/svg" width="462" height="513" viewBox="0 0 462 513" fill="none"><path d="M400.476 222.894C413.02 222.894 425.012 222.874 436.997 222.901C443.925 222.915 446.398 225.744 446.435 233.568C446.447 236.949 446.435 240.323 446.441 243.704C446.447 255.613 444.67 267.97 446.975 279.307C449.231 290.415 455.717 300.44 460.154 311.045C461.123 313.363 461.732 316.11 461.732 318.656C461.819 379.987 461.806 441.326 461.788 502.657C461.788 510.081 459.184 512.986 452.524 512.986C412.679 513.007 372.834 513 332.989 512.986C326.819 512.986 324.905 511.351 323.29 504.492C320.96 494.571 318.742 484.614 315.492 474.43C314.989 476.273 314.424 478.101 313.995 479.971C312.106 488.216 310.317 496.489 308.378 504.713C306.844 511.22 304.818 512.979 299.009 512.979C259.002 513 218.995 513 178.989 512.979C172.639 512.972 169.974 509.998 169.949 502.954C169.911 489.472 169.936 475.983 169.936 461.797C167.942 461.797 166.246 461.797 164.556 461.797C136.391 461.797 108.227 461.804 80.0627 461.79C72.4454 461.79 70.0844 459.147 70.0844 450.654C70.0781 385.59 70.0781 320.519 70.0781 255.454C70.0781 253.35 70.0781 251.239 70.0781 248.451C68.0651 248.451 66.3689 248.451 64.6727 248.451C46.4308 248.451 28.1889 248.472 9.94705 248.437C4.20608 248.423 1.01251 245.581 0.993871 239.951C0.832328 196.041 4.46703 152.697 17.6887 110.954C23.5042 92.5934 31.1464 75.1993 43.3304 60.8617C46.5613 57.0599 50.4569 53.6515 54.5763 51.1193C80.4231 35.2016 106.382 19.5048 132.421 3.98044C135.36 2.22791 139.013 1.15156 142.344 1.13086C181.226 0.937668 220.114 0.944568 259.002 1.11706C262.196 1.13086 265.725 2.02092 268.521 3.69065C295.393 19.7394 322.196 35.933 348.894 52.3405C357.239 57.467 362.613 66.0916 367.702 74.737C380.668 96.7609 388.435 121.22 392.399 146.867C395.984 170.077 397.637 193.66 400.116 217.085C400.308 218.824 400.339 220.576 400.476 222.894ZM315.001 222.894C316.704 194.412 318.406 166.786 319.885 139.139C319.966 137.635 318.493 135.316 317.182 134.537C289.341 117.881 261.438 101.363 233.485 84.9417C231.956 84.0447 229.837 83.6721 228.129 83.9757C209.974 87.1634 191.844 87.1703 173.677 84.0792C171.676 83.7411 169.222 84.1689 167.439 85.2176C139.616 101.529 111.887 118.026 84.0888 134.385C81.7962 135.737 81.1376 137.138 81.2867 140.153C82.7965 170.829 84.9773 201.512 85.2445 232.209C85.8347 300.813 85.4309 369.431 85.4309 438.041C85.4309 440.118 85.4309 442.202 85.4309 444.43C113.825 444.43 141.716 444.43 169.961 444.43C169.961 442.188 169.961 440.263 169.961 438.338C169.961 408.655 170.912 378.918 169.663 349.304C168.663 325.666 171.825 303.973 183.524 284.005C184.804 281.818 185.221 278.672 185.252 275.96C185.419 262.099 185.326 248.23 185.333 234.369C185.339 225.434 187.575 222.894 195.479 222.894C233.559 222.888 271.633 222.894 309.714 222.894C311.578 222.894 313.467 222.894 315.001 222.894ZM415.748 495.695C415.748 493.529 415.748 491.618 415.748 489.713C415.748 448.129 415.76 406.537 415.742 364.953C415.736 352.519 417.892 339.369 414.922 327.86C411.859 315.985 403.694 305.76 397.91 294.714C396.562 292.133 395.102 291.036 392.299 291.043C341.432 291.146 290.559 291.146 239.692 291.036C236.715 291.029 235.144 292.161 233.702 294.941C228.676 304.628 223.264 314.074 218.312 323.803C216.982 326.418 216.106 329.723 216.1 332.71C215.97 385.134 216.007 437.565 216.007 489.989C216.007 491.866 216.007 493.75 216.007 495.73C242.512 495.73 268.378 495.73 294.367 495.73C294.573 494.902 294.746 494.246 294.896 493.591C299.077 475.031 303.252 456.47 307.428 437.91C309.13 430.327 311.398 427.63 316.002 427.699C320.426 427.768 322.637 430.403 324.278 437.648C325.017 440.912 325.682 444.196 326.421 447.466C330.05 463.563 333.691 479.66 337.313 495.688C363.588 495.695 389.435 495.695 415.748 495.695ZM69.9725 231.264C69.9725 228.904 70.0284 226.986 69.9663 225.075C69.3947 208.205 68.9722 191.328 68.1831 174.472C66.9653 148.564 64.4614 122.807 59.261 97.4784C57.7326 90.0336 55.4026 82.7958 53.4393 75.4615C52.8366 75.5097 52.2277 75.558 51.625 75.6063C22.1622 122.393 18.5337 176.446 16.2099 231.257C34.4704 231.264 51.8798 231.264 69.9725 231.264ZM348.174 74.4541C333.61 123.539 332.852 173.079 331.311 222.598C349.472 222.598 366.857 222.598 384.154 222.598C384.353 221.998 384.552 221.68 384.545 221.363C383.539 188.803 380.37 156.588 371.585 125.346C366.558 107.497 360.028 90.4269 348.174 74.4541ZM200.673 495.764C200.673 493.101 200.673 490.997 200.673 488.885C200.673 440.049 201.039 391.206 200.437 342.377C200.269 328.646 202.338 316.613 209.8 305.636C212.702 301.365 214.814 296.439 217.647 291.126C211.186 291.126 205.755 290.933 200.35 291.264C199.02 291.347 197.262 292.83 196.585 294.203C193.528 300.42 190.489 306.698 188.035 313.226C186.557 317.165 185.401 321.602 185.388 325.824C185.214 380.346 185.277 434.861 185.277 489.382C185.277 491.445 185.277 493.515 185.277 495.771C190.595 495.764 195.33 495.764 200.673 495.764ZM446.236 495.73C446.335 494.626 446.454 493.943 446.454 493.26C446.466 436.075 446.472 378.89 446.435 321.712C446.435 320.18 446.155 318.504 445.559 317.138C442.154 309.32 438.675 301.544 435.052 293.851C434.499 292.678 433.089 291.305 432.027 291.257C426.36 291.002 420.675 291.14 414.089 291.14C419.122 300.502 423.906 308.83 428.106 317.503C429.759 320.912 430.933 325.086 430.952 328.922C431.132 382.374 431.076 435.833 431.076 489.285C431.076 491.362 431.076 493.439 431.076 495.744C436.32 495.73 441.06 495.73 446.236 495.73ZM149.091 76.3653C131.315 68.1961 117.112 56.2527 105.86 39.5761C92.3648 47.7591 79.1307 55.7904 66.7603 63.2973C71.122 81.8299 75.291 99.5276 79.547 117.605C102.449 104.026 125.462 90.3786 149.091 76.3653ZM252.242 76.3929C275.908 90.4131 298.916 104.054 321.705 117.557C325.986 99.4724 330.174 81.7747 334.554 63.2766C322.14 55.749 308.9 47.7246 295.43 39.5623C284.215 56.2803 269.999 68.1754 252.242 76.3929ZM281.227 30.9721C275.771 27.6534 270.341 24.3553 264.737 20.9537C247.899 43.2812 225.973 52.1887 200.567 52.1818C175.168 52.1749 153.297 43.1432 136.528 20.9744C130.843 24.4312 125.419 27.7361 119.964 31.0549C152.266 82.6648 250.913 81.2986 281.227 30.9721ZM244.643 18.4422C215.081 18.4422 186.016 18.4422 156.59 18.4422C176.131 40.3557 225.979 40.3143 244.643 18.4422ZM200.865 273.787C206.178 273.787 210.912 273.787 215.721 273.787C215.721 262.409 215.721 251.335 215.721 240.316C210.552 240.316 205.699 240.316 200.865 240.316C200.865 251.666 200.865 262.609 200.865 273.787ZM246.464 273.987C246.464 262.457 246.464 251.383 246.464 240.296C241.313 240.296 236.467 240.296 231.739 240.296C231.739 251.749 231.739 262.823 231.739 273.987C236.74 273.987 241.363 273.987 246.464 273.987ZM262.332 240.144C262.332 251.701 262.332 262.644 262.332 273.766C267.427 273.766 272.273 273.766 277.157 273.766C277.157 262.368 277.157 251.301 277.157 240.144C272.093 240.144 267.359 240.144 262.332 240.144ZM307.968 240.24C302.88 240.24 298.027 240.24 293.131 240.24C293.131 251.632 293.131 262.706 293.131 273.683C298.313 273.683 303.165 273.683 307.968 273.683C307.968 262.326 307.968 251.376 307.968 240.24ZM323.88 240.158C323.88 251.68 323.88 262.754 323.88 273.663C329.087 273.663 333.939 273.663 338.674 273.663C338.674 262.278 338.674 251.335 338.674 240.158C333.678 240.158 328.944 240.158 323.88 240.158ZM354.586 240.178C354.586 251.632 354.586 262.699 354.586 273.683C359.767 273.683 364.62 273.683 369.416 273.683C369.416 262.326 369.416 251.376 369.416 240.178C364.452 240.178 359.711 240.178 354.586 240.178ZM400.022 273.876C400.022 262.299 400.022 251.225 400.022 240.185C394.921 240.185 390.181 240.185 385.266 240.185C385.266 251.521 385.266 262.595 385.266 273.876C390.274 273.876 395.015 273.876 400.022 273.876ZM416.071 240.144C416.071 251.701 416.071 262.775 416.071 273.835C421.166 273.835 425.9 273.835 430.84 273.835C430.84 262.506 430.84 251.432 430.84 240.144C425.832 240.144 421.098 240.144 416.071 240.144Z" fill="#425A53"></path></svg> 